<mxfile host="app.diagrams.net" modified="2023-10-28T00:21:16.477Z" agent="Mozilla/5.0 (Windows NT 10.0; Win64; x64) AppleWebKit/537.36 (KHTML, like Gecko) Chrome/118.0.0.0 Safari/537.36" version="22.0.8" etag="pfX7Asr5l6RAzj-c1GFL" type="github">
  <diagram name="Page-1" id="cfQMX3GaxMYr5_caagrZ">
    <mxGraphModel>
      <root>
        <mxCell id="0" />
        <mxCell id="1" parent="0" />
      </root>
    </mxGraphModel>
  </diagram>
</mxfile>
